<svg width="220" height="160" viewBox="0 0 220 160" fill="none" xmlns="http://www.w3.org/2000/svg">
<rect x="86" width="48" height="35" fill="#333333"/>
<rect y="56" width="66" height="48" fill="#333333"/>
<rect x="154" y="56" width="66" height="48" fill="#333333"/>
<rect x="86" y="125" width="48" height="35" fill="#333333"/>
<path d="M66.1787 110C67.2269 117.328 72.8131 123.191 80 124.649V160H11C4.92487 160 0 155.075 0 149V110H66.1787Z" fill="#333333"/>
<path d="M66.1787 50C67.2269 42.6724 72.8131 36.8095 80 35.3506V0H11C4.92487 0 0 4.92487 0 11V50H66.1787Z" fill="#333333"/>
<path d="M153.821 110C152.773 117.328 147.187 123.191 140 124.649V160H209C215.075 160 220 155.075 220 149V110H153.821Z" fill="#333333"/>
<path d="M153.821 50C152.773 42.6724 147.187 36.8095 140 35.3506V0H209C215.075 0 220 4.92487 220 11V50H153.821Z" fill="#333333"/>
<rect x="72" y="41" width="76" height="78" rx="14" fill="#333333"/>
</svg>
